<?xml version="1.0" encoding="UTF-8"?>
<svg xmlns="http://www.w3.org/2000/svg" xmlns:xlink="http://www.w3.org/1999/xlink" width="150pt" height="149.999998pt" viewBox="0 0 150 149.999998" version="1.2">
<defs>
<clipPath id="clip1">
  <path d="M 3.851562 6.050781 L 145.589844 6.050781 L 145.589844 147.800781 L 3.851562 147.800781 Z M 3.851562 6.050781 "/>
</clipPath>
</defs>
<g id="surface1">
<path style=" stroke:none;fill-rule:nonzero;fill:rgb(79.219055%,74.899292%,76.078796%);fill-opacity:1;" d="M 109.84375 102.957031 C 96.972656 95.066406 84.101562 87.171875 71.234375 79.28125 C 69.125 77.988281 69.082031 74.882812 71.234375 73.597656 C 84.101562 65.914062 96.972656 58.226562 109.84375 50.542969 C 111.992188 49.257812 114.792969 50.90625 114.792969 53.382812 C 114.792969 68.960938 114.792969 84.539062 114.792969 100.117188 C 114.792969 104.363281 108.214844 104.363281 108.214844 100.117188 C 108.214844 84.539062 108.214844 68.960938 108.214844 53.382812 C 109.863281 54.332031 111.515625 55.277344 113.164062 56.226562 C 100.292969 63.910156 87.425781 71.59375 74.554688 79.28125 C 74.554688 77.386719 74.554688 75.492188 74.554688 73.597656 C 87.425781 81.492188 100.292969 89.382812 113.164062 97.277344 C 116.773438 99.492188 113.472656 105.183594 109.84375 102.957031 Z M 109.84375 102.957031 "/>
<g clip-path="url(#clip1)" clip-rule="nonzero">
<path style=" stroke:none;fill-rule:nonzero;fill:rgb(79.219055%,74.899292%,76.078796%);fill-opacity:1;" d="M 74.714844 147.8125 C 113.800781 147.8125 145.601562 116.015625 145.601562 76.9375 C 145.601562 37.847656 113.800781 6.050781 74.714844 6.050781 C 35.632812 6.050781 3.835938 37.847656 3.835938 76.9375 C 3.835938 116.015625 35.632812 147.8125 74.714844 147.8125 Z M 74.714844 13.070312 C 109.933594 13.070312 138.582031 41.71875 138.582031 76.9375 C 138.582031 112.148438 109.933594 140.796875 74.714844 140.796875 C 39.5 140.796875 10.855469 112.148438 10.855469 76.9375 C 10.855469 41.71875 39.5 13.070312 74.714844 13.070312 Z M 74.714844 13.070312 "/>
</g>
<path style=" stroke:none;fill-rule:nonzero;fill:rgb(79.219055%,74.899292%,76.078796%);fill-opacity:1;" d="M 66.101562 102.957031 C 53.230469 95.066406 40.363281 87.171875 27.496094 79.28125 C 25.382812 77.988281 25.34375 74.882812 27.496094 73.597656 C 40.363281 65.914062 53.230469 58.226562 66.101562 50.542969 C 68.25 49.257812 71.050781 50.90625 71.050781 53.382812 C 71.050781 68.960938 71.050781 84.539062 71.050781 100.117188 C 71.050781 104.363281 64.472656 104.363281 64.472656 100.117188 C 64.472656 84.539062 64.472656 68.960938 64.472656 53.382812 C 66.121094 54.332031 67.773438 55.277344 69.421875 56.226562 C 56.554688 63.910156 43.683594 71.59375 30.8125 79.28125 C 30.8125 77.386719 30.8125 75.492188 30.8125 73.597656 C 43.683594 81.492188 56.554688 89.382812 69.421875 97.277344 C 73.03125 99.492188 69.726562 105.183594 66.101562 102.957031 Z M 66.101562 102.957031 "/>
</g>
</svg>
