<?xml version="1.0" encoding="UTF-8"?>
<svg xmlns="http://www.w3.org/2000/svg" xmlns:xlink="http://www.w3.org/1999/xlink" width="52.5pt" height="52.499999pt" viewBox="0 0 52.5 52.499999" version="1.2">
<defs>
<clipPath id="clip1">
  <path d="M 7 2 L 46.949219 2 L 46.949219 51 L 7 51 Z M 7 2 "/>
</clipPath>
</defs>
<g id="surface1">
<g clip-path="url(#clip1)" clip-rule="nonzero">
<path style=" stroke:none;fill-rule:nonzero;fill:rgb(90.979004%,3.138733%,3.138733%);fill-opacity:1;" d="M 37.757812 7.960938 C 33.441406 10.429688 31.234375 17.445312 29.628906 21.871094 C 29.011719 23.542969 26.34375 24.144531 25.804688 22.007812 C 24.640625 17.269531 22.808594 12.691406 19.699219 8.90625 C 12.550781 0.167969 12.152344 16.164062 13.363281 20.359375 C 15.804688 28.929688 20.832031 36.355469 24.808594 44.242188 C 30.550781 37.96875 35.105469 28.320312 38.398438 21.023438 C 39.101562 19.503906 42.859375 5.050781 37.757812 7.960938 Z M 39.976562 30.488281 C 36.550781 37.109375 26.433594 52.539062 24.457031 49.664062 C 16.027344 37.316406 1.496094 20.652344 9.902344 5.769531 C 15.351562 -3.886719 24.09375 8.4375 27.855469 16.335938 C 32.542969 7.351562 42.28125 -5.105469 45.8125 10.851562 C 47.246094 17.324219 42.816406 25.019531 39.976562 30.488281 "/>
</g>
</g>
</svg>
