<?xml version="1.0" encoding="UTF-8"?>
<svg xmlns="http://www.w3.org/2000/svg" xmlns:xlink="http://www.w3.org/1999/xlink" width="150pt" height="149.999998pt" viewBox="0 0 150 149.999998" version="1.2">
<defs>
<clipPath id="clip1">
  <path d="M 3.609375 3.609375 L 146.109375 3.609375 L 146.109375 146.109375 L 3.609375 146.109375 Z M 3.609375 3.609375 "/>
</clipPath>
</defs>
<g id="surface1">
<g clip-path="url(#clip1)" clip-rule="nonzero">
<path style=" stroke:none;fill-rule:nonzero;fill:rgb(91.758728%,51.368713%,23.919678%);fill-opacity:1;" d="M 74.859375 3.609375 C 35.492188 3.609375 3.609375 35.707031 3.609375 74.859375 C 3.609375 114.230469 35.707031 146.109375 74.859375 146.109375 C 114.230469 146.109375 146.109375 114.015625 146.109375 74.859375 C 146.109375 35.492188 114.230469 3.609375 74.859375 3.609375 Z M 74.859375 139.691406 C 39.128906 139.691406 10.03125 110.59375 10.03125 74.859375 C 10.03125 39.128906 39.128906 10.03125 74.859375 10.03125 C 110.59375 10.03125 139.691406 39.128906 139.691406 74.859375 C 139.691406 110.59375 110.59375 139.691406 74.859375 139.691406 Z M 74.859375 139.691406 "/>
</g>
<path style=" stroke:none;fill-rule:nonzero;fill:rgb(91.758728%,51.368713%,23.919678%);fill-opacity:1;" d="M 66.089844 40.199219 L 56.460938 40.199219 C 54.105469 40.199219 52.179688 42.125 52.179688 44.476562 L 52.179688 105.03125 C 52.179688 107.382812 54.105469 109.308594 56.460938 109.308594 L 66.089844 109.308594 C 68.441406 109.308594 70.367188 107.382812 70.367188 105.03125 L 70.367188 44.476562 C 70.367188 42.125 68.441406 40.199219 66.089844 40.199219 Z M 66.089844 40.199219 "/>
<path style=" stroke:none;fill-rule:nonzero;fill:rgb(91.758728%,51.368713%,23.919678%);fill-opacity:1;" d="M 93.261719 40.199219 L 83.632812 40.199219 C 81.28125 40.199219 79.355469 42.125 79.355469 44.476562 L 79.355469 105.03125 C 79.355469 107.382812 81.28125 109.308594 83.632812 109.308594 L 93.261719 109.308594 C 95.613281 109.308594 97.539062 107.382812 97.539062 105.03125 L 97.539062 44.476562 C 97.539062 42.125 95.613281 40.199219 93.261719 40.199219 Z M 93.261719 40.199219 "/>
</g>
</svg>
