<?xml version="1.0" encoding="UTF-8"?>
<svg xmlns="http://www.w3.org/2000/svg" xmlns:xlink="http://www.w3.org/1999/xlink" width="150pt" height="149.999998pt" viewBox="0 0 150 149.999998" version="1.2">
<defs>
<clipPath id="clip1">
  <path d="M 3.839844 6.050781 L 145.589844 6.050781 L 145.589844 147.800781 L 3.839844 147.800781 Z M 3.839844 6.050781 "/>
</clipPath>
</defs>
<g id="surface1">
<path style=" stroke:none;fill-rule:nonzero;fill:rgb(79.219055%,74.899292%,76.078796%);fill-opacity:1;" d="M 39.597656 102.957031 C 52.46875 95.066406 65.335938 87.171875 78.207031 79.28125 C 80.316406 77.988281 80.359375 74.882812 78.207031 73.597656 C 65.335938 65.914062 52.46875 58.226562 39.597656 50.542969 C 37.449219 49.257812 34.648438 50.90625 34.648438 53.382812 C 34.648438 68.960938 34.648438 84.539062 34.648438 100.117188 C 34.648438 104.363281 41.226562 104.363281 41.226562 100.117188 C 41.226562 84.539062 41.226562 68.960938 41.226562 53.382812 C 39.578125 54.332031 37.925781 55.277344 36.277344 56.226562 C 49.148438 63.910156 62.015625 71.59375 74.886719 79.28125 C 74.886719 77.386719 74.886719 75.492188 74.886719 73.597656 C 62.015625 81.492188 49.148438 89.382812 36.277344 97.277344 C 32.667969 99.492188 35.96875 105.183594 39.597656 102.957031 Z M 39.597656 102.957031 "/>
<g clip-path="url(#clip1)" clip-rule="nonzero">
<path style=" stroke:none;fill-rule:nonzero;fill:rgb(79.219055%,74.899292%,76.078796%);fill-opacity:1;" d="M 74.726562 147.8125 C 35.640625 147.8125 3.839844 116.015625 3.839844 76.9375 C 3.839844 37.847656 35.640625 6.050781 74.726562 6.050781 C 113.808594 6.050781 145.605469 37.847656 145.605469 76.9375 C 145.605469 116.015625 113.808594 147.8125 74.726562 147.8125 Z M 74.726562 13.070312 C 39.507812 13.070312 10.859375 41.71875 10.859375 76.9375 C 10.859375 112.148438 39.507812 140.796875 74.726562 140.796875 C 109.941406 140.796875 138.585938 112.148438 138.585938 76.9375 C 138.585938 41.71875 109.941406 13.070312 74.726562 13.070312 Z M 74.726562 13.070312 "/>
</g>
<path style=" stroke:none;fill-rule:nonzero;fill:rgb(79.219055%,74.899292%,76.078796%);fill-opacity:1;" d="M 83.339844 102.957031 C 96.210938 95.066406 109.078125 87.171875 121.945312 79.28125 C 124.054688 77.988281 124.097656 74.882812 121.945312 73.597656 C 109.078125 65.914062 96.210938 58.226562 83.339844 50.542969 C 81.191406 49.257812 78.390625 50.90625 78.390625 53.382812 C 78.390625 68.960938 78.390625 84.539062 78.390625 100.117188 C 78.390625 104.363281 84.96875 104.363281 84.96875 100.117188 C 84.96875 84.539062 84.96875 68.960938 84.96875 53.382812 C 83.320312 54.332031 81.667969 55.277344 80.019531 56.226562 C 92.886719 63.910156 105.757812 71.59375 118.628906 79.28125 C 118.628906 77.386719 118.628906 75.492188 118.628906 73.597656 C 105.757812 81.492188 92.886719 89.382812 80.019531 97.277344 C 76.410156 99.492188 79.714844 105.183594 83.339844 102.957031 Z M 83.339844 102.957031 "/>
</g>
</svg>
