<?xml version="1.0" encoding="UTF-8"?>
<svg xmlns="http://www.w3.org/2000/svg" xmlns:xlink="http://www.w3.org/1999/xlink" width="52.5pt" height="52.499999pt" viewBox="0 0 52.5 52.499999" version="1.2">
<defs>
<clipPath id="clip1">
  <path d="M 7 2 L 46.949219 2 L 46.949219 51 L 7 51 Z M 7 2 "/>
</clipPath>
<clipPath id="clip2">
  <path d="M 8.175781 4.121094 L 44.175781 4.121094 L 44.175781 47.621094 L 8.175781 47.621094 Z M 8.175781 4.121094 "/>
</clipPath>
</defs>
<g id="surface1">
<g clip-path="url(#clip1)" clip-rule="nonzero">
<path style=" stroke:none;fill-rule:nonzero;fill:rgb(90.979004%,3.138733%,3.138733%);fill-opacity:1;" d="M 37.757812 7.960938 C 33.441406 10.429688 31.234375 17.445312 29.628906 21.871094 C 29.011719 23.542969 26.34375 24.144531 25.804688 22.007812 C 24.640625 17.269531 22.808594 12.691406 19.699219 8.90625 C 12.550781 0.167969 12.152344 16.164062 13.363281 20.359375 C 15.804688 28.929688 20.832031 36.355469 24.808594 44.242188 C 30.550781 37.96875 35.105469 28.320312 38.398438 21.023438 C 39.101562 19.503906 42.859375 5.050781 37.757812 7.960938 Z M 39.976562 30.488281 C 36.550781 37.109375 26.433594 52.539062 24.457031 49.664062 C 16.027344 37.316406 1.496094 20.652344 9.902344 5.769531 C 15.351562 -3.886719 24.09375 8.4375 27.855469 16.335938 C 32.542969 7.351562 42.28125 -5.105469 45.8125 10.851562 C 47.246094 17.324219 42.816406 25.019531 39.976562 30.488281 "/>
</g>
<g clip-path="url(#clip2)" clip-rule="nonzero">
<path style=" stroke:none;fill-rule:nonzero;fill:rgb(90.979004%,3.138733%,3.138733%);fill-opacity:1;" d="M 25.519531 14.976562 C 25.945312 14.3125 26.371094 13.605469 26.871094 12.902344 C 27.453125 12.117188 28.035156 11.292969 28.769531 10.628906 C 29.542969 9.921875 29.96875 8.941406 30.78125 8.316406 C 31.59375 7.6875 32.175781 6.789062 32.988281 6.121094 C 34.804688 4.632812 36.855469 3.808594 39.257812 4.203125 C 40.960938 4.476562 42.160156 5.457031 43.085938 6.945312 C 43.863281 8.160156 44.171875 9.492188 44.054688 10.824219 C 43.9375 12.117188 43.4375 13.371094 43.050781 14.625 C 42.660156 15.800781 42.238281 16.9375 41.773438 18.074219 C 41.539062 18.703125 41.230469 19.328125 40.882812 19.917969 C 39.796875 21.757812 38.675781 23.5625 37.59375 25.363281 C 37.050781 26.265625 36.46875 27.167969 35.929688 28.066406 C 35.152344 29.359375 34.378906 30.652344 33.644531 31.988281 C 32.714844 33.632812 31.863281 35.316406 30.9375 36.925781 C 29.699219 39.117188 28.382812 41.273438 27.144531 43.46875 C 26.601562 44.449219 26.214844 45.546875 25.710938 46.566406 C 25.09375 47.78125 23.660156 47.976562 22.886719 46.878906 C 21.726562 45.3125 20.679688 43.664062 19.558594 42.058594 C 18.589844 40.6875 17.625 39.355469 16.695312 37.980469 C 15.726562 36.492188 14.796875 35.003906 14.0625 33.359375 C 13.40625 31.867188 12.4375 30.535156 11.625 29.125 C 10.929688 27.988281 10.464844 26.773438 10.152344 25.480469 C 9.882812 24.304688 9.457031 23.207031 9.1875 22.03125 C 8.914062 20.894531 8.722656 19.71875 8.488281 18.542969 C 8.0625 16.429688 8.335938 14.3125 8.644531 12.234375 C 8.914062 10.433594 9.417969 8.628906 10.65625 7.21875 C 11.507812 6.238281 12.554688 5.574219 13.871094 5.21875 C 15.03125 4.90625 16.152344 4.867188 17.3125 5.023438 C 18.398438 5.140625 19.25 5.691406 19.984375 6.511719 C 20.601562 7.257812 21.339844 7.886719 22.074219 8.511719 C 23.117188 9.375 23.816406 10.433594 24.316406 11.648438 C 24.78125 12.785156 25.167969 13.960938 25.519531 14.976562 Z M 18.9375 10.277344 C 19.363281 9.492188 19.363281 8.824219 18.746094 8.316406 C 17.972656 7.726562 17.273438 6.90625 16.152344 7.414062 C 15.957031 7.492188 15.84375 7.648438 15.6875 7.765625 C 17.3125 7.886719 17.933594 9.296875 18.9375 10.277344 Z M 19.441406 36.765625 C 19.363281 36.808594 19.289062 36.886719 19.210938 36.925781 C 20.023438 38.21875 20.835938 39.472656 21.6875 40.765625 C 21.765625 40.726562 21.839844 40.6875 21.878906 40.648438 C 21.453125 39.117188 20.175781 38.101562 19.441406 36.765625 Z M 24.707031 26.695312 C 24.78125 26.695312 24.898438 26.695312 24.976562 26.65625 C 25.167969 25.519531 25.054688 24.421875 24.742188 23.363281 L 24.550781 23.363281 C 24.628906 24.5 24.667969 25.597656 24.707031 26.695312 Z M 10.8125 12.390625 C 11.316406 11.058594 11.855469 9.765625 12.359375 8.433594 C 11.355469 9.570312 10.964844 10.941406 10.8125 12.390625 Z M 35.542969 11.453125 L 35.65625 11.570312 C 36.277344 10.980469 36.933594 10.394531 37.554688 9.804688 L 37.4375 9.6875 C 36.625 10.078125 36.082031 10.746094 35.542969 11.453125 Z M 13.984375 10.863281 C 13.90625 10.824219 13.832031 10.824219 13.714844 10.785156 C 13.445312 11.648438 13.171875 12.46875 12.863281 13.332031 C 12.941406 13.371094 12.980469 13.371094 13.054688 13.410156 C 13.40625 12.546875 13.714844 11.6875 13.984375 10.863281 Z M 41.191406 12.195312 C 41.269531 12.195312 41.308594 12.15625 41.386719 12.15625 C 41.230469 11.53125 41.074219 10.941406 40.921875 10.316406 C 40.84375 10.355469 40.765625 10.355469 40.6875 10.394531 C 41.191406 10.902344 40.457031 11.726562 41.191406 12.195312 Z M 14.371094 22.1875 C 14.292969 21.601562 14.257812 21.132812 14.179688 20.621094 C 14.140625 20.621094 14.0625 20.660156 14.023438 20.660156 C 14.179688 21.132812 13.792969 21.757812 14.371094 22.1875 Z M 14.371094 22.1875 "/>
</g>
</g>
</svg>
