<?xml version="1.0" encoding="UTF-8"?>
<svg xmlns="http://www.w3.org/2000/svg" xmlns:xlink="http://www.w3.org/1999/xlink" width="150pt" height="149.999998pt" viewBox="0 0 150 149.999998" version="1.2">
<defs>
<clipPath id="clip1">
  <path d="M 2.730469 0 L 147.480469 0 L 147.480469 144.75 L 2.730469 144.75 Z M 2.730469 0 "/>
</clipPath>
</defs>
<g id="surface1">
<path style=" stroke:none;fill-rule:nonzero;fill:rgb(100%,56.858826%,30.198669%);fill-opacity:1;" d="M 111.335938 69.894531 L 53.4375 35.152344 C 52.542969 34.617188 51.425781 34.605469 50.519531 35.117188 C 49.613281 35.628906 49.050781 36.59375 49.050781 37.636719 L 49.050781 107.113281 C 49.050781 108.15625 49.613281 109.117188 50.519531 109.632812 C 50.960938 109.886719 51.453125 110.011719 51.945312 110.011719 C 52.460938 110.011719 52.976562 109.871094 53.4375 109.597656 L 111.335938 74.855469 C 112.203125 74.335938 112.738281 73.390625 112.738281 72.375 C 112.738281 71.359375 112.203125 70.414062 111.335938 69.894531 Z M 54.839844 102 L 54.839844 42.746094 L 104.21875 72.375 Z M 54.839844 102 "/>
<g clip-path="url(#clip1)" clip-rule="nonzero">
<path style=" stroke:none;fill-rule:nonzero;fill:rgb(100%,56.858826%,30.198669%);fill-opacity:1;" d="M 75.105469 0 C 35.199219 0 2.730469 32.46875 2.730469 72.375 C 2.730469 112.28125 35.199219 144.75 75.105469 144.75 C 115.011719 144.75 147.480469 112.28125 147.480469 72.375 C 147.480469 32.46875 115.011719 0 75.105469 0 Z M 75.105469 138.960938 C 38.390625 138.960938 8.519531 109.09375 8.519531 72.375 C 8.519531 35.660156 38.390625 5.789062 75.105469 5.789062 C 111.820312 5.789062 141.691406 35.660156 141.691406 72.375 C 141.691406 109.09375 111.820312 138.960938 75.105469 138.960938 Z M 75.105469 138.960938 "/>
</g>
</g>
</svg>
